<svg width="40" height="40" viewBox="0 0 40 40" fill="none" xmlns="http://www.w3.org/2000/svg">
<g opacity="0.1">
<path d="M34.7061 34.7059C35.6811 34.7059 36.6162 34.3186 37.3057 33.6291C37.9952 32.9396 38.3825 32.0045 38.3825 31.0294V22.0515C38.3825 21.0764 37.9952 20.1413 37.3057 19.4518C36.6162 18.7624 35.6811 18.375 34.7061 18.375H29.6031C29.6031 17.0846 29.6803 15.7905 29.8311 14.5C30.059 13.1324 30.4414 11.9155 30.9708 10.853C31.5039 9.78679 32.1877 8.95223 33.0259 8.34194C33.8605 7.65812 34.923 7.31621 36.2171 7.31621V1.61768C34.0884 1.61768 32.2281 2.07356 30.6289 2.98532C29.0435 3.88784 27.6805 5.13404 26.6399 6.63238C25.5955 8.28427 24.8257 10.0945 24.3605 11.9927C23.8917 14.0874 23.6623 16.2286 23.6766 18.375V31.0294C23.6766 32.0045 24.064 32.9396 24.7535 33.6291C25.4429 34.3186 26.3781 34.7059 27.3531 34.7059H34.7061ZM12.6472 34.7059C13.6223 34.7059 14.5574 34.3186 15.2469 33.6291C15.9364 32.9396 16.3237 32.0045 16.3237 31.0294V22.0515C16.3237 21.0764 15.9364 20.1413 15.2469 19.4518C14.5574 18.7624 13.6223 18.375 12.6472 18.375H7.5443C7.5443 17.0846 7.6215 15.7905 7.77224 14.5C8.00018 13.1324 8.38253 11.9155 8.91194 10.853C9.44503 9.78679 10.1289 8.95223 10.9671 8.34194C11.8016 7.65812 12.8641 7.31621 14.1583 7.31621V1.61768C12.0296 1.61768 10.1693 2.07356 8.57003 2.98532C6.98469 3.88784 5.62166 5.13404 4.58106 6.63238C3.53667 8.28427 2.76688 10.0945 2.30165 11.9927C1.83285 14.0874 1.60344 16.2286 1.61782 18.375V31.0294C1.61782 32.0045 2.00517 32.9396 2.69464 33.6291C3.38411 34.3186 4.31923 34.7059 5.2943 34.7059H12.6472Z" fill="#162B32"/>
</g>
</svg>
